<svg xmlns="http://www.w3.org/2000/svg" viewBox="0 0 171.2 226.84"><defs><style>.cls-1{fill:#f5d384;}.cls-2{fill:#93ac61;}.cls-3,.cls-6{fill:#1c3556;}.cls-4{fill:#c3464b;}.cls-5,.cls-7{fill:none;}.cls-5,.cls-6,.cls-7{stroke:#1c3556;stroke-miterlimit:10;}.cls-5{stroke-width:2.38px;}.cls-6{stroke-width:0.32px;}.cls-7{stroke-linecap:round;stroke-width:2.08px;}</style></defs><g id="Layer_2" data-name="Layer 2"><g id="Layer_1-2" data-name="Layer 1"><path class="cls-1" d="M129,88.69v67.53a72.43,72.43,0,0,1-74.19,8.31V88.69L92.61,65.2Z"/><path class="cls-2" d="M92.61,65.2,54.8,88.69v75.84A72.33,72.33,0,0,1,12.68,98.8V75.74L55.56,41.28Z"/><path class="cls-3" d="M157.33,14V67.46L131.16,41.28,92.61,65.2l-37-23.92L12.68,75.74V14S68.22,22,85,0C101.78,22,157.33,14,157.33,14Z"/><path class="cls-4" d="M157.33,67.46V98.8A72.22,72.22,0,0,1,129,156.22V88.69L92.61,65.2l38.55-23.92Z"/><path class="cls-5" d="M106.12,121a15.16,15.16,0,0,0-30.32,0,14.84,14.84,0,0,0,1.53,6.65c.52,1,5.3,6.75,5.3,13.22H99.3c0-6.47,4.92-12.6,5.29-13.22A12.91,12.91,0,0,0,106.12,121Z"/><rect class="cls-3" x="81.54" y="143.47" width="18.84" height="2.62" rx="1.2"/><rect class="cls-3" x="81.54" y="147.48" width="18.84" height="2.62" rx="1.2"/><path class="cls-6" d="M91,156.59c3.67,0,6.64-2.19,6.64-4.9H84.33C84.33,154.4,87.3,156.59,91,156.59Z"/><path class="cls-3" d="M90.37,100.41h0a.93.93,0,0,1-.93-.93v-9a.93.93,0,0,1,.93-.93h0a.93.93,0,0,1,.93.93v9A.93.93,0,0,1,90.37,100.41Z"/><path class="cls-3" d="M79.77,103.56h0a.92.92,0,0,1-1.27-.34L74,95.44a.94.94,0,0,1,.34-1.27h0a.92.92,0,0,1,1.27.34l4.5,7.79A.92.92,0,0,1,79.77,103.56Z"/><path class="cls-3" d="M72.17,111.6h0a.93.93,0,0,1-1.27.34l-7.79-4.5a.94.94,0,0,1-.34-1.27h0a.94.94,0,0,1,1.27-.34l7.79,4.5A.92.92,0,0,1,72.17,111.6Z"/><path class="cls-3" d="M69.61,121.17h0a.93.93,0,0,1-.93.92h-9a.92.92,0,0,1-.93-.92h0a.92.92,0,0,1,.93-.93h9A.93.93,0,0,1,69.61,121.17Z"/><path class="cls-3" d="M111.25,121.17h0a.92.92,0,0,1,.93-.93h9a.93.93,0,0,1,.93.93h0a.93.93,0,0,1-.93.92h-9A.92.92,0,0,1,111.25,121.17Z"/><path class="cls-3" d="M109.16,110.57h0a.93.93,0,0,1,.34-1.27l7.79-4.5a.94.94,0,0,1,1.27.34h0a.94.94,0,0,1-.34,1.27l-7.79,4.5A.94.94,0,0,1,109.16,110.57Z"/><path class="cls-3" d="M101.13,103h0a.92.92,0,0,1-.34-1.27l4.49-7.79a.94.94,0,0,1,1.27-.34h0a.92.92,0,0,1,.34,1.27l-4.5,7.79A.92.92,0,0,1,101.13,103Z"/><path class="cls-7" d="M80.8,119.43a9.39,9.39,0,0,1,8.3-9.07"/><path class="cls-3" d="M43.13,197.21c-.16.82-1,3.59-1.23,4.42H29.53v-.75c2.42-.24,2.63-.37,2.63-2.63V187.68c0-2.26-.26-2.39-2.39-2.61v-.74H36.9v.74c-2.13.22-2.42.32-2.42,2.61v10.83c0,1.63.21,2,1.73,2l2.1,0c1.36,0,1.76-.16,2.37-.82A9.21,9.21,0,0,0,42.3,197Z"/><path class="cls-3" d="M53.11,184a8.55,8.55,0,0,1,8.62,8.78c0,5.72-3.89,9.28-8.78,9.28a8.66,8.66,0,0,1-8.84-8.88A8.87,8.87,0,0,1,53.11,184Zm-.54,1c-3,0-5.69,2.5-5.69,7.48S49.59,201,53.37,201c3.22,0,5.64-2.39,5.64-7.53C59,187.89,56.06,184.94,52.57,184.94Z"/><path class="cls-3" d="M81.63,185.07c-1.7.19-2.26.46-2.34,1.68,0,.85-.08,2-.08,4.44v10.67h-1L66.81,188v6.65c0,2.39.08,3.59.14,4.36,0,1.36.71,1.76,2.63,1.92v.75H63.11v-.75c1.65-.13,2.29-.53,2.4-1.84.08-.85.13-2,.13-4.47v-6.78a2.32,2.32,0,0,0-.53-1.76c-.51-.66-1.07-.82-2.37-1v-.74h4L78,197.71v-6.52c0-2.47-.06-3.62-.14-4.41-.08-1.2-.69-1.57-2.82-1.71v-.74h6.57Z"/><path class="cls-3" d="M90.1,184.33c3.75,0,6.12.74,7.77,2.31a7.72,7.72,0,0,1,2.26,5.7,8.74,8.74,0,0,1-3.33,7.18c-2,1.52-4.6,2.11-7.87,2.11H82.7v-.75c2.29-.21,2.4-.4,2.4-2.58V187.68c0-2.29-.32-2.39-2.4-2.61v-.74Zm-2.69,13.76c0,2,.85,2.55,2.85,2.55,4.79,0,7.24-3.27,7.24-7.93,0-2.9-1-5.11-3.09-6.39a8.43,8.43,0,0,0-4.55-1.06,3.78,3.78,0,0,0-2.1.37c-.24.16-.35.45-.35,1.49Z"/><path class="cls-3" d="M111,184a8.55,8.55,0,0,1,8.62,8.78c0,5.72-3.89,9.28-8.78,9.28a8.66,8.66,0,0,1-8.84-8.88A8.87,8.87,0,0,1,111,184Zm-.54,1c-3,0-5.69,2.5-5.69,7.48s2.71,8.59,6.49,8.59c3.22,0,5.64-2.39,5.64-7.53C116.92,187.89,114,184.94,110.48,184.94Z"/><path class="cls-3" d="M139.54,185.07c-1.7.19-2.26.46-2.34,1.68,0,.85-.08,2-.08,4.44v10.67h-1L124.72,188v6.65c0,2.39.08,3.59.13,4.36.06,1.36.72,1.76,2.64,1.92v.75H121v-.75c1.65-.13,2.29-.53,2.4-1.84.08-.85.13-2,.13-4.47v-6.78A2.32,2.32,0,0,0,123,186c-.51-.66-1.07-.82-2.37-1v-.74h4l11.28,13.38v-6.52c0-2.47,0-3.62-.13-4.41-.08-1.2-.69-1.57-2.82-1.71v-.74h6.57Z"/><path class="cls-3" d="M18.52,209.89c-2.21.21-2.42.34-2.42,2.58v10.67c0,2.23.24,2.31,2.42,2.55v.75H11.39v-.75c2.21-.26,2.42-.32,2.42-2.55v-5.32H4.71v5.32c0,2.21.21,2.29,2.4,2.55v.75H0v-.75c2.16-.24,2.4-.32,2.4-2.55V212.47c0-2.24-.24-2.37-2.4-2.58v-.75H7.11v.75c-2.13.18-2.4.37-2.4,2.58v4.23h9.1v-4.23c0-2.21-.29-2.4-2.42-2.58v-.75h7.13Z"/><path class="cls-3" d="M29,208.77a8.55,8.55,0,0,1,8.62,8.78c0,5.72-3.88,9.29-8.78,9.29A8.66,8.66,0,0,1,20,218,8.87,8.87,0,0,1,29,208.77Zm-.53,1c-3,0-5.7,2.5-5.7,7.48s2.72,8.6,6.5,8.6c3.22,0,5.64-2.4,5.64-7.53C34.89,212.71,31.94,209.75,28.45,209.75Z"/><path class="cls-3" d="M53.92,226.44v-.75c2.18-.21,2.26-.37,2.23-3.22l0-10.85c-2.18,4.86-5.7,12.48-6.63,14.82h-.69C48,224,45,216.7,42.93,211.88c-.46,9.32-.48,11.42-.48,11.92,0,1.49.69,1.71,2.5,1.89v.75H38.64v-.75c1.55-.16,2.18-.48,2.4-1.91.16-1.17.18-2.13.88-11.85.1-1.38-.16-1.83-2.51-2v-.75H44l5.89,13.49,6.3-13.49h4.66v.75c-2.29.26-2.58.5-2.53,2.36l.11,10.22c.1,2.85.18,3,2.53,3.22v.75Z"/><path class="cls-3" d="M76.14,222.21c-.16.69-.88,3.43-1.14,4.23H62.06v-.75c2.48-.18,2.66-.42,2.66-2.61V212.57c0-2.36-.29-2.5-2.29-2.68v-.75h8.15c2.5,0,3.54,0,3.86,0,0,.66.13,2.66.24,4.07l-.8.13a9.1,9.1,0,0,0-.8-2c-.43-.88-1-1.06-2.63-1.06H67.92c-.83,0-.88.07-.88.85v5.88H70c2,0,2.13-.4,2.45-2.21h.83v5.48h-.83C72.09,218.3,71.88,218,70,218H67v5.29c0,1.87.58,2,1.92,2.05h2.47c1.62,0,1.89-.24,2.47-.93A11.14,11.14,0,0,0,75.34,222Z"/><path class="cls-3" d="M91.31,213.19c-.45-1.76-1.2-3.49-3.7-3.49a2.65,2.65,0,0,0-2.79,2.9c0,1.84,1.17,2.77,3.38,3.91,3.19,1.65,4.57,2.88,4.57,5.4,0,2.8-2.42,4.93-5.85,4.93a11,11,0,0,1-4.07-.88,33.74,33.74,0,0,1-.72-4l.82-.22c.53,1.79,1.71,4.1,4.47,4.1a2.93,2.93,0,0,0,3.09-3.06c0-2-1.09-2.87-3.43-4.15-2.8-1.52-4.37-2.79-4.37-5.27s2-4.6,5.49-4.6a17.58,17.58,0,0,1,3.51.5c.1,1,.21,2,.42,3.76Z"/><path class="cls-3" d="M104.32,226.44v-.75c1.73-.21,2-.48,1.57-1.49s-.88-2.37-1.43-4H98.71c-.43,1.19-.83,2.23-1.2,3.32-.59,1.73-.21,2,2,2.21v.75H93.33v-.75c1.68-.21,2.1-.4,3-2.79l5.51-14,.85-.16c1.67,4.55,3.51,9.58,5.19,14.18.85,2.32,1.09,2.53,3,2.74v.75Zm-2.66-14.19c-.85,2.29-1.75,4.71-2.55,6.82h5Z"/><path class="cls-3" d="M122.53,213.29a8.58,8.58,0,0,0-.83-2c-.5-.9-.9-1.11-2.39-1.11h-2.85c-.77,0-.85.07-.85.85v6.14h3.3c1.91,0,2-.32,2.45-2.18h.79v5.56h-.82c-.35-1.86-.53-2.28-2.42-2.28h-3.3v4.76c0,2.31.26,2.42,2.68,2.63v.75H110.9v-.75c2.15-.16,2.39-.34,2.39-2.63V212.52c0-2.31-.26-2.42-2.39-2.63v-.75h8.43c2.4,0,3.3,0,3.75,0,0,1,.14,2.82.27,4.1Z"/><path class="cls-3" d="M138.36,222.21c-.16.69-.88,3.43-1.14,4.23H124.28v-.75c2.48-.18,2.66-.42,2.66-2.61V212.57c0-2.36-.29-2.5-2.28-2.68v-.75h8.14c2.5,0,3.54,0,3.86,0,0,.66.13,2.66.24,4.07l-.8.13a9.1,9.1,0,0,0-.8-2c-.43-.88-1-1.06-2.63-1.06h-2.53c-.83,0-.88.07-.88.85v5.88h3c2,0,2.13-.4,2.45-2.21h.83v5.48h-.83c-.34-1.91-.56-2.18-2.47-2.18h-2.93v5.29c0,1.87.58,2,1.92,2.05h2.47c1.62,0,1.89-.24,2.47-.93a11.14,11.14,0,0,0,1.44-2.45Z"/><path class="cls-3" d="M153.18,213.32a9.37,9.37,0,0,0-.85-2.21c-.42-.72-.69-.9-2.15-.9h-2.66v12.95c0,2.08.21,2.37,2.74,2.53v.75h-7.75v-.75c2.48-.16,2.69-.42,2.69-2.53V210.21h-2.42c-1.46,0-1.89.15-2.34.95a12.56,12.56,0,0,0-.88,2.16h-.8c.16-1.62.32-3.3.4-4.79h.61c.4.64.69.61,1.44.61h10.54a1.33,1.33,0,0,0,1.35-.61h.64c0,1.25.11,3.17.24,4.71Z"/><path class="cls-3" d="M171.2,209.89c-1.86.21-2.18.5-3.24,2.2-1.2,1.95-2.19,3.78-3.49,6.15a2.81,2.81,0,0,0-.4,1.57v3.27c0,2.21.24,2.37,2.71,2.61v.75h-7.63v-.75c2.42-.32,2.6-.37,2.6-2.61v-3.43a2.68,2.68,0,0,0-.53-1.54c-.93-1.73-1.83-3.41-3.27-5.91-1-1.81-1.31-2.13-3.12-2.31v-.75h6.55v.75c-1.91.26-1.81.61-1.33,1.51,1.12,2,2.37,4.45,3.49,6.44,1-1.78,2.47-4.68,3.22-6.14s.53-1.6-1.57-1.81v-.75h6Z"/></g></g></svg>